<?xml version="1.0" encoding="UTF-8"?>
<!DOCTYPE svg PUBLIC "-//W3C//DTD SVG 1.1//EN" "http://www.w3.org/Graphics/SVG/1.1/DTD/svg11.dtd">
<!-- Creator: CorelDRAW 2020 -->
<svg xmlns="http://www.w3.org/2000/svg" xml:space="preserve" width="1780px" height="186px" version="1.1" style="shape-rendering:geometricPrecision; text-rendering:geometricPrecision; image-rendering:optimizeQuality; fill-rule:evenodd; clip-rule:evenodd"
viewBox="0 0 1365.9 142.64"
 xmlns:xlink="http://www.w3.org/1999/xlink"
 xmlns:xodm="http://www.corel.com/coreldraw/odm/2003">
 <defs>
  <style type="text/css">
   <![CDATA[
    .fil0 {fill:#E84F40}
    .fil2 {fill:#013243;fill-rule:nonzero}
    .fil1 {fill:white;fill-rule:nonzero}
   ]]>
  </style>
 </defs>
 <g id="Layer_x0020_1">
  <metadata id="CorelCorpID_0Corel-Layer"/>
  <rect class="fil0" x="819.04" y="45.95" width="546.85" height="96.69" rx="60.09" ry="22.49"/>
  <path class="fil1" d="M858.63 122.59c-0.54,0 -0.98,-0.19 -1.32,-0.56 -0.35,-0.36 -0.52,-0.79 -0.52,-1.28l0 -47.83c0,-0.54 0.17,-0.99 0.52,-1.33 0.34,-0.34 0.78,-0.51 1.32,-0.51l20.61 0c4.07,0 7.61,0.62 10.63,1.87 3.02,1.25 5.37,3.13 7.06,5.63 1.7,2.5 2.54,5.67 2.54,9.5 0,3.77 -0.84,6.89 -2.54,9.34 -1.69,2.45 -4.04,4.27 -7.06,5.45 -3.02,1.17 -6.56,1.76 -10.63,1.76l-8.76 0 0 16.12c0,0.49 -0.18,0.92 -0.55,1.28 -0.37,0.37 -0.82,0.56 -1.36,0.56l-9.94 0zm11.63 -28.11l8.61 0c2.11,0 3.79,-0.54 5.04,-1.62 1.25,-1.08 1.88,-2.72 1.88,-4.93 0,-1.87 -0.54,-3.44 -1.62,-4.71 -1.08,-1.28 -2.85,-1.91 -5.3,-1.91l-8.61 0 0 13.17z"/>
  <path id="1" class="fil1" d="M926.97 123.32c-4.46,0 -8.35,-0.72 -11.66,-2.17 -3.31,-1.45 -5.88,-3.68 -7.69,-6.69 -1.81,-3.02 -2.72,-6.86 -2.72,-11.52l0 -30.02c0,-0.54 0.17,-0.99 0.51,-1.33 0.35,-0.34 0.79,-0.51 1.33,-0.51l9.49 0c0.54,0 0.99,0.17 1.36,0.51 0.37,0.34 0.55,0.79 0.55,1.33l0 29.95c0,3.18 0.76,5.58 2.28,7.17 1.52,1.59 3.68,2.39 6.48,2.39 2.75,0 4.89,-0.8 6.44,-2.39 1.54,-1.59 2.32,-3.99 2.32,-7.17l0 -29.95c0,-0.54 0.18,-0.99 0.55,-1.33 0.37,-0.34 0.8,-0.51 1.29,-0.51l9.56 0c0.49,0 0.92,0.17 1.29,0.51 0.37,0.34 0.55,0.79 0.55,1.33l0 30.02c0,4.66 -0.91,8.5 -2.72,11.52 -1.82,3.01 -4.37,5.24 -7.65,6.69 -3.29,1.45 -7.14,2.17 -11.56,2.17z"/>
  <path id="2" class="fil1" d="M959.33 122.59c-0.54,0 -0.98,-0.19 -1.32,-0.56 -0.35,-0.36 -0.52,-0.79 -0.52,-1.28l0 -47.83c0,-0.54 0.17,-0.99 0.52,-1.33 0.34,-0.34 0.78,-0.51 1.32,-0.51l20.02 0c6.37,0 11.38,1.46 15.01,4.37 3.63,2.92 5.44,7.06 5.44,12.4 0,3.49 -0.83,6.43 -2.5,8.83 -1.67,2.41 -3.88,4.22 -6.62,5.45l10.08 18.1c0.15,0.3 0.22,0.57 0.22,0.81 0,0.39 -0.16,0.75 -0.48,1.07 -0.32,0.32 -0.67,0.48 -1.07,0.48l-9.78 0c-0.93,0 -1.62,-0.24 -2.06,-0.7 -0.44,-0.47 -0.76,-0.9 -0.96,-1.29l-8.39 -16.19 -7.5 0 0 16.34c0,0.49 -0.19,0.92 -0.56,1.28 -0.36,0.37 -0.82,0.56 -1.36,0.56l-9.49 0zm11.41 -28.63l8.46 0c2.3,0 4.03,-0.56 5.19,-1.69 1.15,-1.13 1.73,-2.65 1.73,-4.56 0,-1.92 -0.56,-3.46 -1.66,-4.64 -1.1,-1.18 -2.86,-1.76 -5.26,-1.76l-8.46 0 0 12.65z"/>
  <path id="3" class="fil1" d="M1028.04 123.32c-4.61,0 -8.58,-0.76 -11.92,-2.28 -3.34,-1.52 -5.92,-3.75 -7.76,-6.69 -1.84,-2.95 -2.86,-6.6 -3.06,-10.97 -0.05,-2.01 -0.07,-4.17 -0.07,-6.47 0,-2.31 0.02,-4.52 0.07,-6.63 0.2,-4.26 1.23,-7.9 3.09,-10.89 1.87,-2.99 4.47,-5.25 7.8,-6.77 3.34,-1.52 7.29,-2.28 11.85,-2.28 3.24,0 6.23,0.41 8.98,1.22 2.74,0.8 5.15,1.98 7.21,3.53 2.06,1.54 3.67,3.41 4.82,5.59 1.15,2.18 1.75,4.65 1.8,7.4 0.05,0.44 -0.08,0.8 -0.4,1.1 -0.32,0.29 -0.7,0.44 -1.14,0.44l-9.94 0c-0.64,0 -1.13,-0.13 -1.47,-0.4 -0.34,-0.27 -0.64,-0.78 -0.88,-1.51 -0.69,-2.6 -1.81,-4.38 -3.35,-5.34 -1.55,-0.95 -3.45,-1.43 -5.7,-1.43 -2.7,0 -4.84,0.75 -6.41,2.24 -1.57,1.5 -2.42,3.99 -2.57,7.47 -0.15,4.02 -0.15,8.14 0,12.36 0.15,3.49 1,5.98 2.57,7.47 1.57,1.5 3.71,2.25 6.41,2.25 2.25,0 4.17,-0.49 5.74,-1.48 1.57,-0.98 2.67,-2.74 3.31,-5.29 0.19,-0.74 0.48,-1.24 0.84,-1.51 0.37,-0.27 0.87,-0.41 1.51,-0.41l9.94 0c0.44,0 0.82,0.15 1.14,0.44 0.32,0.3 0.45,0.67 0.4,1.11 -0.05,2.75 -0.65,5.21 -1.8,7.39 -1.15,2.19 -2.76,4.05 -4.82,5.6 -2.06,1.54 -4.47,2.72 -7.21,3.53 -2.75,0.81 -5.74,1.21 -8.98,1.21z"/>
  <path id="4" class="fil1" d="M1059.22 122.59c-0.54,0 -0.98,-0.17 -1.32,-0.52 -0.35,-0.34 -0.52,-0.78 -0.52,-1.32l0 -47.83c0,-0.54 0.17,-0.99 0.52,-1.33 0.34,-0.34 0.78,-0.51 1.32,-0.51l9.49 0c0.54,0 1,0.17 1.36,0.51 0.37,0.34 0.56,0.79 0.56,1.33l0 17.73 18.1 0 0 -17.73c0,-0.54 0.17,-0.99 0.51,-1.33 0.35,-0.34 0.79,-0.51 1.33,-0.51l9.49 0c0.54,0 0.98,0.17 1.32,0.51 0.35,0.34 0.52,0.79 0.52,1.33l0 47.83c0,0.49 -0.17,0.92 -0.52,1.28 -0.34,0.37 -0.78,0.56 -1.32,0.56l-9.49 0c-0.54,0 -0.98,-0.19 -1.33,-0.56 -0.34,-0.36 -0.51,-0.79 -0.51,-1.28l0 -18.33 -18.1 0 0 18.33c0,0.49 -0.19,0.92 -0.56,1.28 -0.36,0.37 -0.82,0.56 -1.36,0.56l-9.49 0z"/>
  <path id="5" class="fil1" d="M1108.06 122.59c-0.39,0 -0.75,-0.16 -1.07,-0.48 -0.32,-0.32 -0.47,-0.68 -0.47,-1.07 0,-0.24 0.02,-0.46 0.07,-0.66l17.29 -47.24c0.15,-0.54 0.46,-1.02 0.92,-1.44 0.47,-0.42 1.12,-0.62 1.95,-0.62l10.89 0c0.84,0 1.49,0.2 1.95,0.62 0.47,0.42 0.77,0.9 0.92,1.44l17.22 47.24c0.1,0.2 0.15,0.42 0.15,0.66 0,0.39 -0.16,0.75 -0.48,1.07 -0.32,0.32 -0.7,0.48 -1.14,0.48l-9.05 0c-0.74,0 -1.29,-0.19 -1.66,-0.56 -0.36,-0.36 -0.6,-0.69 -0.7,-0.99l-2.87 -7.5 -19.64 0 -2.8 7.5c-0.1,0.3 -0.32,0.63 -0.66,0.99 -0.34,0.37 -0.93,0.56 -1.77,0.56l-9.05 0zm17.29 -19.65l13.69 0 -6.84 -19.43 -6.85 19.43z"/>
  <path id="6" class="fil1" d="M1180.89 123.32c-4.91,0 -8.98,-0.7 -12.22,-2.09 -3.23,-1.4 -5.69,-3.23 -7.35,-5.49 -1.67,-2.25 -2.55,-4.66 -2.65,-7.21 0,-0.39 0.16,-0.75 0.48,-1.07 0.31,-0.31 0.69,-0.47 1.14,-0.47l9.27 0c0.68,0 1.21,0.12 1.58,0.36 0.37,0.25 0.7,0.57 0.99,0.96 0.4,0.74 0.95,1.45 1.66,2.14 0.71,0.68 1.66,1.23 2.83,1.65 1.18,0.42 2.6,0.63 4.27,0.63 2.85,0 4.99,-0.45 6.44,-1.33 1.45,-0.88 2.17,-2.08 2.17,-3.6 0,-1.13 -0.39,-2.04 -1.18,-2.73 -0.78,-0.68 -2.05,-1.31 -3.79,-1.87 -1.74,-0.57 -4.06,-1.14 -6.95,-1.73 -3.73,-0.79 -6.91,-1.81 -9.53,-3.06 -2.62,-1.25 -4.62,-2.89 -6,-4.93 -1.37,-2.03 -2.06,-4.57 -2.06,-7.61 0,-2.99 0.85,-5.67 2.54,-8.02 1.69,-2.36 4.06,-4.2 7.1,-5.52 3.04,-1.33 6.65,-1.99 10.82,-1.99 3.38,0 6.36,0.44 8.94,1.33 2.57,0.88 4.75,2.06 6.51,3.53 1.77,1.47 3.1,3.03 4.01,4.67 0.91,1.64 1.39,3.25 1.44,4.82 0,0.39 -0.14,0.75 -0.41,1.07 -0.27,0.32 -0.65,0.48 -1.14,0.48l-9.71 0c-0.54,0 -1.01,-0.1 -1.4,-0.3 -0.39,-0.2 -0.74,-0.51 -1.03,-0.96 -0.29,-1.08 -1.07,-2.02 -2.32,-2.83 -1.25,-0.81 -2.88,-1.21 -4.89,-1.21 -2.16,0 -3.84,0.38 -5.04,1.14 -1.2,0.76 -1.8,1.92 -1.8,3.49 0,0.98 0.33,1.84 0.99,2.58 0.66,0.73 1.76,1.37 3.31,1.91 1.55,0.54 3.67,1.11 6.37,1.69 4.46,0.84 8.07,1.88 10.81,3.13 2.75,1.25 4.77,2.87 6.07,4.86 1.3,1.99 1.95,4.48 1.95,7.47 0,3.33 -0.95,6.2 -2.87,8.61 -1.91,2.4 -4.52,4.25 -7.83,5.55 -3.32,1.3 -7.15,1.95 -11.52,1.95z"/>
  <path id="7" class="fil1" d="M1211.11 122.59c-0.54,0 -0.98,-0.19 -1.32,-0.56 -0.34,-0.36 -0.52,-0.79 -0.52,-1.28l0 -47.83c0,-0.54 0.18,-0.99 0.52,-1.33 0.34,-0.34 0.78,-0.51 1.32,-0.51l9.86 0c0.54,0 1,0.17 1.37,0.51 0.36,0.34 0.55,0.79 0.55,1.33l0 47.83c0,0.49 -0.19,0.92 -0.55,1.28 -0.37,0.37 -0.83,0.56 -1.37,0.56l-9.86 0z"/>
  <path id="8" class="fil1" d="M1233.76 122.59c-0.54,0 -0.98,-0.19 -1.33,-0.56 -0.34,-0.36 -0.51,-0.79 -0.51,-1.28l0 -47.83c0,-0.54 0.17,-0.99 0.51,-1.33 0.35,-0.34 0.79,-0.51 1.33,-0.51l7.8 0c0.83,0 1.43,0.18 1.8,0.55 0.37,0.37 0.6,0.65 0.7,0.85l17.95 28.25 0 -27.81c0,-0.54 0.18,-0.99 0.52,-1.33 0.34,-0.34 0.78,-0.51 1.33,-0.51l8.83 0c0.53,0 0.98,0.17 1.32,0.51 0.34,0.34 0.52,0.79 0.52,1.33l0 47.75c0,0.54 -0.18,1 -0.52,1.36 -0.34,0.37 -0.79,0.56 -1.32,0.56l-7.88 0c-0.78,0 -1.36,-0.2 -1.73,-0.59 -0.37,-0.39 -0.6,-0.66 -0.7,-0.81l-17.95 -27.23 0 26.79c0,0.49 -0.17,0.92 -0.52,1.28 -0.34,0.37 -0.78,0.56 -1.32,0.56l-8.83 0z"/>
  <path id="9" class="fil1" d="M1304.9 123.32c-4.66,0 -8.67,-0.77 -12.04,-2.32 -3.36,-1.54 -5.96,-3.8 -7.8,-6.77 -1.84,-2.96 -2.85,-6.58 -3.05,-10.85 -0.05,-2.11 -0.07,-4.35 -0.07,-6.73 0,-2.38 0.02,-4.65 0.07,-6.81 0.2,-4.17 1.23,-7.7 3.09,-10.6 1.87,-2.89 4.49,-5.1 7.87,-6.62 3.39,-1.52 7.36,-2.28 11.93,-2.28 3.68,0 6.94,0.45 9.78,1.36 2.85,0.91 5.24,2.12 7.18,3.65 1.94,1.52 3.42,3.18 4.45,5 1.03,1.81 1.57,3.6 1.62,5.37 0,0.44 -0.16,0.81 -0.48,1.1 -0.32,0.3 -0.7,0.45 -1.14,0.45l-10.74 0c-0.54,0 -0.95,-0.09 -1.22,-0.26 -0.27,-0.17 -0.5,-0.43 -0.7,-0.77 -0.34,-0.74 -0.84,-1.51 -1.51,-2.32 -0.66,-0.81 -1.57,-1.51 -2.72,-2.1 -1.15,-0.59 -2.66,-0.88 -4.52,-0.88 -2.75,0 -4.93,0.73 -6.55,2.21 -1.62,1.47 -2.5,3.82 -2.65,7.06 -0.15,4.22 -0.15,8.49 0,12.8 0.15,3.44 1.05,5.91 2.72,7.44 1.67,1.52 3.9,2.28 6.7,2.28 1.81,0 3.44,-0.32 4.89,-0.96 1.45,-0.64 2.59,-1.63 3.42,-2.98 0.84,-1.35 1.25,-3.08 1.25,-5.19l0 -1.4 -6.91 0c-0.54,0 -0.99,-0.18 -1.33,-0.55 -0.34,-0.37 -0.51,-0.82 -0.51,-1.36l0 -5.44c0,-0.54 0.17,-1 0.51,-1.37 0.34,-0.36 0.79,-0.55 1.33,-0.55l18.54 0c0.54,0 0.98,0.19 1.32,0.55 0.35,0.37 0.52,0.83 0.52,1.37l0 8.38c0,4.22 -0.96,7.83 -2.87,10.82 -1.91,2.99 -4.62,5.29 -8.13,6.88 -3.51,1.6 -7.59,2.39 -12.25,2.39z"/>
  <path class="fil2" d="M4.9 139.22c-1.3,0 -2.45,-0.49 -3.43,-1.47 -0.98,-0.98 -1.47,-2.12 -1.47,-3.43l0 -127.26c0,-1.44 0.46,-2.65 1.37,-3.63 0.92,-0.98 2.09,-1.47 3.53,-1.47l53.93 0c17.25,0 30.75,3.92 40.49,11.77 9.74,7.84 14.61,18.89 14.61,33.14 0,9.15 -2.13,16.92 -6.37,23.33 -4.25,6.41 -10.1,11.37 -17.55,14.9l26.47 47.85c0.39,0.78 0.59,1.5 0.59,2.16 0,1.04 -0.4,1.99 -1.18,2.84 -0.79,0.85 -1.77,1.27 -2.94,1.27l-27.65 0c-3.79,0 -6.47,-1.76 -8.04,-5.29l-21.57 -42.55 -18.82 0 0 42.94c0,1.44 -0.5,2.62 -1.48,3.53 -0.98,0.92 -2.19,1.37 -3.62,1.37l-26.87 0zm53.73 -76.67c5.62,0 9.9,-1.4 12.85,-4.21 2.94,-2.81 4.41,-6.7 4.41,-11.67 0,-4.97 -1.47,-8.96 -4.41,-11.96 -2.95,-3.01 -7.23,-4.51 -12.85,-4.51l-21.76 0 0 32.35 21.76 0zm128.43 78.63c-18.56,0 -33.2,-4.51 -43.92,-13.53 -10.72,-9.02 -16.41,-22.28 -17.06,-39.8 -0.13,-3.66 -0.2,-9.28 -0.2,-16.87 0,-7.58 0.07,-13.26 0.2,-17.06 0.52,-17.25 6.24,-30.55 17.16,-39.9 10.91,-9.35 25.52,-14.02 43.82,-14.02 18.18,0 32.72,4.67 43.63,14.02 10.92,9.35 16.64,22.65 17.16,39.9 0.26,7.59 0.39,13.27 0.39,17.06 0,3.93 -0.13,9.55 -0.39,16.87 -0.65,17.52 -6.31,30.78 -16.96,39.8 -10.65,9.02 -25.26,13.53 -43.83,13.53zm0 -29.41c6.8,0 12.23,-2.06 16.28,-6.18 4.05,-4.11 6.21,-10.42 6.47,-18.92 0.26,-7.58 0.39,-13.01 0.39,-16.27 0,-3.27 -0.13,-8.57 -0.39,-15.89 -0.26,-8.49 -2.42,-14.8 -6.47,-18.92 -4.05,-4.12 -9.48,-6.18 -16.28,-6.18 -6.92,0 -12.41,2.06 -16.47,6.18 -4.05,4.12 -6.21,10.43 -6.47,18.92 -0.13,3.66 -0.19,8.96 -0.19,15.89 0,7.06 0.06,12.48 0.19,16.27 0.26,8.5 2.42,14.81 6.47,18.92 4.06,4.12 9.55,6.18 16.47,6.18zm82.94 27.45c-1.43,0 -2.64,-0.45 -3.62,-1.37 -0.98,-0.91 -1.47,-2.09 -1.47,-3.53l0 -127.26c0,-1.44 0.49,-2.65 1.47,-3.63 0.98,-0.98 2.19,-1.47 3.62,-1.47l22.16 0c3.27,0 5.62,1.44 7.06,4.31l33.73 60.4 33.92 -60.4c1.44,-2.87 3.79,-4.31 7.06,-4.31l22.16 0c1.44,0 2.65,0.49 3.63,1.47 0.98,0.98 1.47,2.19 1.47,3.63l0 127.26c0,1.44 -0.49,2.62 -1.47,3.53 -0.98,0.92 -2.19,1.37 -3.63,1.37l-24.9 0c-1.31,0 -2.45,-0.49 -3.43,-1.47 -0.99,-0.98 -1.48,-2.12 -1.48,-3.43l0 -71.38 -21.17 38.83c-1.7,3.01 -3.99,4.51 -6.87,4.51l-10.59 0c-2.61,0 -4.9,-1.5 -6.86,-4.51l-20.98 -38.83 0 71.38c0,1.44 -0.49,2.62 -1.47,3.53 -0.98,0.92 -2.19,1.37 -3.63,1.37l-24.71 0zm157.26 0c-1.3,0 -2.45,-0.49 -3.43,-1.47 -0.98,-0.98 -1.47,-2.12 -1.47,-3.43l0 -127.26c0,-1.44 0.46,-2.65 1.37,-3.63 0.92,-0.98 2.09,-1.47 3.53,-1.47l22.16 0c3.01,0 5.23,1.24 6.67,3.73l46.27 73.14 0 -71.77c0,-1.44 0.46,-2.65 1.38,-3.63 0.91,-0.98 2.09,-1.47 3.53,-1.47l24.9 0c1.44,0 2.62,0.49 3.53,1.47 0.92,0.98 1.37,2.19 1.37,3.63l0 127.07c0,1.43 -0.45,2.64 -1.37,3.62 -0.91,0.98 -2.09,1.47 -3.53,1.47l-22.16 0c-3,0 -5.23,-1.24 -6.66,-3.72l-46.09 -70.2 0 69.02c0,1.44 -0.49,2.62 -1.47,3.53 -0.98,0.92 -2.19,1.37 -3.62,1.37l-24.91 0zm135.89 0c-1.31,0 -2.45,-0.49 -3.43,-1.47 -0.98,-0.98 -1.47,-2.12 -1.47,-3.43l0 -50.05 35.36 0 0 -27.97 -35.36 0 0 -49.24c0,-1.44 0.45,-2.65 1.37,-3.63 0.91,-0.98 2.09,-1.47 3.53,-1.47l92.55 0c1.44,0 2.65,0.49 3.63,1.47 0.98,0.98 1.47,2.19 1.47,3.63l0 19.41c0,1.44 -0.49,2.62 -1.47,3.53 -0.98,0.92 -2.19,1.37 -3.63,1.37l-61.96 0 0 24.91 57.65 0c1.44,0 2.64,0.49 3.63,1.47 0.98,0.98 1.47,2.19 1.47,3.63l0 17.84c0,1.44 -0.49,2.65 -1.47,3.63 -0.99,0.98 -2.19,1.47 -3.63,1.47l-57.65 0 0 25.49 63.53 0c1.44,0 2.65,0.49 3.63,1.47 0.98,0.98 1.47,2.19 1.47,3.63l0 19.41c0,1.44 -0.49,2.62 -1.47,3.53 -0.98,0.92 -2.19,1.37 -3.63,1.37l-94.12 0zm150.78 0c-1.43,0 -2.64,-0.45 -3.62,-1.37 -0.98,-0.91 -1.47,-2.09 -1.47,-3.53l0 -100.4 -34.52 0c-1.43,0 -2.64,-0.45 -3.62,-1.37 -0.98,-0.92 -1.47,-2.09 -1.47,-3.53l0 -21.96c0,-1.44 0.49,-2.65 1.47,-3.63 0.98,-0.98 2.19,-1.47 3.62,-1.47l106.48 0c1.44,0 2.65,0.49 3.63,1.47 0.98,0.98 1.47,2.19 1.47,3.63l0 21.96c0,1.44 -0.49,2.61 -1.47,3.53 -0.98,0.92 -2.19,1.37 -3.63,1.37l-34.51 0 0 100.4c0,1.44 -0.49,2.62 -1.47,3.53 -0.98,0.92 -2.19,1.37 -3.63,1.37l-27.26 0z"/>
 </g>
</svg>
